<svg width="202" height="26" viewBox="0 0 202 26" fill="none" xmlns="http://www.w3.org/2000/svg">
<path d="M17.428 6.5H15.0502C14.9095 5.81605 14.6634 5.2152 14.3119 4.69744C13.9667 4.17969 13.5448 3.74503 13.0463 3.39347C12.5541 3.03551 12.0075 2.76705 11.4067 2.58807C10.8058 2.40909 10.1794 2.3196 9.52743 2.3196C8.33851 2.3196 7.26145 2.62003 6.29625 3.22088C5.33745 3.82173 4.5736 4.70703 4.00471 5.87678C3.44221 7.04652 3.16096 8.48153 3.16096 10.1818C3.16096 11.8821 3.44221 13.3171 4.00471 14.4869C4.5736 15.6566 5.33745 16.5419 6.29625 17.1428C7.26145 17.7436 8.33851 18.044 9.52743 18.044C10.1794 18.044 10.8058 17.9545 11.4067 17.7756C12.0075 17.5966 12.5541 17.3313 13.0463 16.9798C13.5448 16.6218 13.9667 16.1839 14.3119 15.6662C14.6634 15.142 14.9095 14.5412 15.0502 13.8636H17.428C17.249 14.8672 16.923 15.7653 16.45 16.5579C15.977 17.3505 15.3889 18.0249 14.6858 18.581C13.9827 19.1307 13.1933 19.5494 12.3176 19.837C11.4482 20.1246 10.5182 20.2685 9.52743 20.2685C7.85272 20.2685 6.36337 19.8594 5.05939 19.0412C3.75542 18.223 2.72949 17.0597 1.98162 15.5511C1.23375 14.0426 0.859819 12.2528 0.859819 10.1818C0.859819 8.1108 1.23375 6.32102 1.98162 4.8125C2.72949 3.30398 3.75542 2.14062 5.05939 1.32244C6.36337 0.504261 7.85272 0.0951697 9.52743 0.0951697C10.5182 0.0951697 11.4482 0.238991 12.3176 0.526633C13.1933 0.814275 13.9827 1.23615 14.6858 1.79226C15.3889 2.34197 15.977 3.01314 16.45 3.80575C16.923 4.59197 17.249 5.49006 17.428 6.5ZM26.9466 20.3068C25.617 20.3068 24.4505 19.9904 23.4469 19.3576C22.4498 18.7248 21.6699 17.8395 21.1074 16.7017C20.5513 15.5639 20.2733 14.2344 20.2733 12.7131C20.2733 11.179 20.5513 9.83984 21.1074 8.69567C21.6699 7.55149 22.4498 6.663 23.4469 6.03018C24.4505 5.39737 25.617 5.08097 26.9466 5.08097C28.2761 5.08097 29.4395 5.39737 30.4366 6.03018C31.4402 6.663 32.22 7.55149 32.7761 8.69567C33.3386 9.83984 33.6199 11.179 33.6199 12.7131C33.6199 14.2344 33.3386 15.5639 32.7761 16.7017C32.22 17.8395 31.4402 18.7248 30.4366 19.3576C29.4395 19.9904 28.2761 20.3068 26.9466 20.3068ZM26.9466 18.2741C27.9565 18.2741 28.7875 18.0153 29.4395 17.4975C30.0914 16.9798 30.574 16.299 30.8873 15.4553C31.2005 14.6115 31.3571 13.6974 31.3571 12.7131C31.3571 11.7287 31.2005 10.8114 30.8873 9.96129C30.574 9.11115 30.0914 8.42401 29.4395 7.89986C28.7875 7.37571 27.9565 7.11364 26.9466 7.11364C25.9366 7.11364 25.1056 7.37571 24.4537 7.89986C23.8017 8.42401 23.3191 9.11115 23.0059 9.96129C22.6926 10.8114 22.536 11.7287 22.536 12.7131C22.536 13.6974 22.6926 14.6115 23.0059 15.4553C23.3191 16.299 23.8017 16.9798 24.4537 17.4975C25.1056 18.0153 25.9366 18.2741 26.9466 18.2741ZM37.074 20V5.27273H39.26V7.57386H39.4518C39.7586 6.78764 40.254 6.1772 40.9379 5.74254C41.6219 5.30149 42.4433 5.08097 43.4021 5.08097C44.3737 5.08097 45.1823 5.30149 45.8279 5.74254C46.4798 6.1772 46.988 6.78764 47.3524 7.57386H47.5058C47.8829 6.81321 48.4486 6.20916 49.2029 5.76172C49.9571 5.30788 50.8616 5.08097 51.9163 5.08097C53.233 5.08097 54.3101 5.49325 55.1475 6.31783C55.9848 7.13601 56.4035 8.41122 56.4035 10.1435V20H54.1407V10.1435C54.1407 9.05682 53.8435 8.28018 53.249 7.81357C52.6546 7.34695 51.9546 7.11364 51.1492 7.11364C50.1137 7.11364 49.3115 7.42685 48.7426 8.05327C48.1737 8.67329 47.8893 9.45952 47.8893 10.4119V20H45.5882V9.91335C45.5882 9.07599 45.3165 8.40163 44.7732 7.89027C44.2298 7.37251 43.5299 7.11364 42.6734 7.11364C42.0853 7.11364 41.5356 7.27024 41.0242 7.58345C40.5193 7.89666 40.1102 8.33132 39.797 8.88743C39.4901 9.43714 39.3367 10.0732 39.3367 10.7955V20H37.074ZM60.5407 25.5227V5.27273H62.7268V7.61222H62.9953C63.1615 7.35653 63.3916 7.03054 63.6856 6.63423C63.9861 6.23153 64.4143 5.87358 64.9704 5.56037C65.5329 5.24077 66.2936 5.08097 67.2524 5.08097C68.4925 5.08097 69.5855 5.39098 70.5315 6.01101C71.4775 6.63104 72.2158 7.50994 72.7464 8.64773C73.2769 9.78551 73.5422 11.1278 73.5422 12.6747C73.5422 14.2344 73.2769 15.5863 72.7464 16.7305C72.2158 17.8683 71.4807 18.7504 70.5411 19.3768C69.6015 19.9968 68.518 20.3068 67.2907 20.3068C66.3447 20.3068 65.5873 20.1502 65.0184 19.837C64.4495 19.5174 64.0116 19.1562 63.7048 18.7536C63.398 18.3445 63.1615 18.0057 62.9953 17.7372H62.8035V25.5227H60.5407ZM62.7652 12.6364C62.7652 13.7486 62.9282 14.7298 63.2542 15.5799C63.5802 16.4237 64.0564 17.0852 64.6828 17.5646C65.3092 18.0376 66.0763 18.2741 66.9839 18.2741C67.93 18.2741 68.7194 18.0249 69.3522 17.5263C69.9914 17.0213 70.4708 16.3437 70.7904 15.4936C71.1164 14.6371 71.2794 13.6847 71.2794 12.6364C71.2794 11.6009 71.1196 10.6676 70.8 9.83665C70.4868 8.99929 70.0106 8.33771 69.3714 7.85192C68.7385 7.35973 67.9427 7.11364 66.9839 7.11364C66.0635 7.11364 65.29 7.34695 64.6636 7.81357C64.0372 8.27379 63.5642 8.91939 63.2446 9.75035C62.925 10.5749 62.7652 11.5369 62.7652 12.6364ZM81.3277 20.3452C80.3944 20.3452 79.5475 20.1694 78.7868 19.8178C78.0262 19.4599 77.4221 18.9453 76.9747 18.2741C76.5273 17.5966 76.3035 16.7784 76.3035 15.8196C76.3035 14.9759 76.4697 14.2919 76.8021 13.7678C77.1345 13.2372 77.5787 12.8217 78.1349 12.5213C78.691 12.2209 79.3046 11.9972 79.9758 11.8501C80.6533 11.6967 81.3341 11.5753 82.018 11.4858C82.9129 11.3707 83.6384 11.2844 84.1945 11.2269C84.757 11.163 85.1661 11.0575 85.4218 10.9105C85.6839 10.7635 85.8149 10.5078 85.8149 10.1435V10.0668C85.8149 9.12074 85.556 8.38565 85.0383 7.86151C84.5269 7.33736 83.7503 7.07528 82.7084 7.07528C81.6281 7.07528 80.7812 7.31179 80.1675 7.7848C79.5539 8.25781 79.1224 8.76278 78.8731 9.29972L76.7254 8.53267C77.1089 7.63778 77.6203 6.94105 78.2595 6.44247C78.9051 5.9375 79.6082 5.58594 80.3689 5.38778C81.1359 5.18324 81.8902 5.08097 82.6317 5.08097C83.1047 5.08097 83.648 5.13849 84.2616 5.25355C84.8817 5.36221 85.4793 5.58913 86.0546 5.9343C86.6363 6.27947 87.1189 6.80043 87.5024 7.49716C87.8859 8.19389 88.0777 9.12713 88.0777 10.2969V20H85.8149V18.0057H85.6998C85.5464 18.3253 85.2907 18.6673 84.9328 19.0316C84.5748 19.396 84.0986 19.706 83.5042 19.9616C82.9097 20.2173 82.1842 20.3452 81.3277 20.3452ZM81.6729 18.3125C82.5677 18.3125 83.322 18.1367 83.9356 17.7852C84.5557 17.4336 85.0223 16.9798 85.3355 16.4237C85.6551 15.8675 85.8149 15.2827 85.8149 14.669V12.598C85.719 12.7131 85.5081 12.8185 85.1821 12.9144C84.8625 13.0039 84.4917 13.0838 84.0699 13.1541C83.6544 13.218 83.2485 13.2756 82.8522 13.3267C82.4623 13.3714 82.1459 13.4098 81.903 13.4418C81.3149 13.5185 80.7652 13.6431 80.2538 13.8157C79.7488 13.9819 79.3398 14.2344 79.0265 14.5732C78.7197 14.9055 78.5663 15.3594 78.5663 15.9347C78.5663 16.7209 78.8572 17.3153 79.4388 17.718C80.0269 18.1143 80.7716 18.3125 81.6729 18.3125ZM94.4705 11.1406V20H92.2077V5.27273H94.3938V7.57386H94.5856C94.9308 6.82599 95.4549 6.22514 96.158 5.77131C96.8612 5.31108 97.7688 5.08097 98.881 5.08097C99.8782 5.08097 100.751 5.28551 101.499 5.6946C102.246 6.0973 102.828 6.71094 103.244 7.53551C103.659 8.35369 103.867 9.3892 103.867 10.642V20H101.604V10.7955C101.604 9.63849 101.304 8.73722 100.703 8.09162C100.102 7.43963 99.2773 7.11364 98.229 7.11364C97.5067 7.11364 96.8612 7.27024 96.2923 7.58345C95.7298 7.89666 95.2855 8.35369 94.9595 8.95454C94.6335 9.5554 94.4705 10.2841 94.4705 11.1406ZM108.932 25.5227C108.548 25.5227 108.206 25.4908 107.906 25.4268C107.605 25.3693 107.398 25.3118 107.283 25.2543L107.858 23.2599C108.408 23.4006 108.893 23.4517 109.315 23.4134C109.737 23.375 110.111 23.1864 110.437 22.8477C110.769 22.5153 111.073 21.9751 111.348 21.2273L111.77 20.0767L106.324 5.27273H108.778L112.844 17.0085H112.997L117.062 5.27273H119.517L113.266 22.1477C112.984 22.9084 112.636 23.538 112.22 24.0366C111.805 24.5415 111.322 24.9155 110.773 25.1584C110.229 25.4013 109.616 25.5227 108.932 25.5227ZM145.975 0.363636V20H143.674L132.974 4.58239H132.782V20H130.404V0.363636H132.705L143.444 15.8196H143.636V0.363636H145.975ZM154.76 20.3452C153.827 20.3452 152.98 20.1694 152.219 19.8178C151.459 19.4599 150.855 18.9453 150.407 18.2741C149.96 17.5966 149.736 16.7784 149.736 15.8196C149.736 14.9759 149.902 14.2919 150.235 13.7678C150.567 13.2372 151.011 12.8217 151.567 12.5213C152.124 12.2209 152.737 11.9972 153.408 11.8501C154.086 11.6967 154.767 11.5753 155.451 11.4858C156.346 11.3707 157.071 11.2844 157.627 11.2269C158.19 11.163 158.599 11.0575 158.854 10.9105C159.116 10.7635 159.248 10.5078 159.248 10.1435V10.0668C159.248 9.12074 158.989 8.38565 158.471 7.86151C157.96 7.33736 157.183 7.07528 156.141 7.07528C155.061 7.07528 154.214 7.31179 153.6 7.7848C152.987 8.25781 152.555 8.76278 152.306 9.29972L150.158 8.53267C150.542 7.63778 151.053 6.94105 151.692 6.44247C152.338 5.9375 153.041 5.58594 153.801 5.38778C154.569 5.18324 155.323 5.08097 156.064 5.08097C156.537 5.08097 157.081 5.13849 157.694 5.25355C158.314 5.36221 158.912 5.58913 159.487 5.9343C160.069 6.27947 160.551 6.80043 160.935 7.49716C161.319 8.19389 161.51 9.12713 161.51 10.2969V20H159.248V18.0057H159.132C158.979 18.3253 158.723 18.6673 158.365 19.0316C158.007 19.396 157.531 19.706 156.937 19.9616C156.342 20.2173 155.617 20.3452 154.76 20.3452ZM155.105 18.3125C156 18.3125 156.755 18.1367 157.368 17.7852C157.988 17.4336 158.455 16.9798 158.768 16.4237C159.088 15.8675 159.248 15.2827 159.248 14.669V12.598C159.152 12.7131 158.941 12.8185 158.615 12.9144C158.295 13.0039 157.924 13.0838 157.502 13.1541C157.087 13.218 156.681 13.2756 156.285 13.3267C155.895 13.3714 155.578 13.4098 155.336 13.4418C154.748 13.5185 154.198 13.6431 153.686 13.8157C153.181 13.9819 152.772 14.2344 152.459 14.5732C152.152 14.9055 151.999 15.3594 151.999 15.9347C151.999 16.7209 152.29 17.3153 152.871 17.718C153.46 18.1143 154.204 18.3125 155.105 18.3125ZM165.64 20V5.27273H167.826V7.57386H168.018C168.325 6.78764 168.82 6.1772 169.504 5.74254C170.188 5.30149 171.01 5.08097 171.968 5.08097C172.94 5.08097 173.749 5.30149 174.394 5.74254C175.046 6.1772 175.554 6.78764 175.919 7.57386H176.072C176.449 6.81321 177.015 6.20916 177.769 5.76172C178.524 5.30788 179.428 5.08097 180.483 5.08097C181.799 5.08097 182.877 5.49325 183.714 6.31783C184.551 7.13601 184.97 8.41122 184.97 10.1435V20H182.707V10.1435C182.707 9.05682 182.41 8.28018 181.815 7.81357C181.221 7.34695 180.521 7.11364 179.716 7.11364C178.68 7.11364 177.878 7.42685 177.309 8.05327C176.74 8.67329 176.456 9.45952 176.456 10.4119V20H174.155V9.91335C174.155 9.07599 173.883 8.40163 173.34 7.89027C172.796 7.37251 172.096 7.11364 171.24 7.11364C170.652 7.11364 170.102 7.27024 169.591 7.58345C169.086 7.89666 168.677 8.33132 168.363 8.88743C168.057 9.43714 167.903 10.0732 167.903 10.7955V20H165.64ZM195.282 20.3068C193.863 20.3068 192.639 19.9936 191.61 19.3672C190.587 18.7344 189.797 17.8523 189.241 16.7209C188.692 15.5831 188.417 14.2599 188.417 12.7514C188.417 11.2429 188.692 9.91335 189.241 8.76278C189.797 7.60582 190.571 6.70455 191.562 6.05895C192.559 5.40696 193.722 5.08097 195.052 5.08097C195.819 5.08097 196.576 5.20881 197.324 5.46449C198.072 5.72017 198.753 6.13565 199.366 6.71094C199.98 7.27983 200.469 8.03409 200.833 8.97372C201.198 9.91335 201.38 11.0703 201.38 12.4446V13.4034H190.028V11.4474H199.079C199.079 10.6165 198.913 9.875 198.58 9.22301C198.254 8.57102 197.788 8.05646 197.18 7.67933C196.579 7.3022 195.87 7.11364 195.052 7.11364C194.15 7.11364 193.371 7.33736 192.712 7.7848C192.06 8.22585 191.559 8.80114 191.207 9.51065C190.855 10.2202 190.68 10.9808 190.68 11.7926V13.0966C190.68 14.2088 190.871 15.1516 191.255 15.9251C191.645 16.6921 192.185 17.277 192.875 17.6797C193.566 18.076 194.368 18.2741 195.282 18.2741C195.876 18.2741 196.413 18.1911 196.893 18.0249C197.378 17.8523 197.797 17.5966 198.149 17.2578C198.5 16.9126 198.772 16.4844 198.964 15.973L201.15 16.5866C200.92 17.3281 200.533 17.9801 199.99 18.5426C199.446 19.0987 198.775 19.5334 197.976 19.8466C197.177 20.1534 196.279 20.3068 195.282 20.3068Z" fill="black"/>
</svg>
